<svg xmlns="http://www.w3.org/2000/svg" xmlns:xlink="http://www.w3.org/1999/xlink" viewBox="0 0 24 24" fill="rgb(102, 156, 210)"><path d="M 19.779 10.228 L 21.779 10.228 L 21.779 12.228 L 19.779 12.228 L 19.779 10.228 Z M 16.533 10.228 L 18.533 10.228 L 18.533 12.228 L 16.533 12.228 L 16.533 10.228 Z M 13.287 10.228 L 15.287 10.228 L 15.287 12.228 L 13.287 12.228 L 13.287 10.228 Z M 19.779 14.066 L 21.779 14.066 L 21.779 16.066 L 19.779 16.066 L 19.779 14.066 Z M 16.533 14.066 L 18.533 14.066 L 18.533 16.066 L 16.533 16.066 L 16.533 14.066 Z M 13.287 14.066 L 15.287 14.066 L 15.287 16.066 L 13.287 16.066 L 13.287 14.066 Z M 19.779 17.904 L 21.779 17.904 L 21.779 19.904 L 19.779 19.904 L 19.779 17.904 Z M 16.533 17.904 L 18.533 17.904 L 18.533 19.904 L 16.533 19.904 L 16.533 17.904 Z M 13.287 17.904 L 15.287 17.904 L 15.287 19.904 L 13.287 19.904 L 13.287 17.904 Z M 20.728 3.846 L 22.91 3.846 L 22.91 7.09 L 1.09 7.09 L 1.09 3.846 L 3.2720000000000002 3.846 L 3.2720000000000002 2.7560000000000002 L 0 2.7560000000000002 L 0 22.364 L 24 22.364 L 24 2.7560000000000002 L 20.728 2.7560000000000002 L 20.728 3.846 Z M 22.91 21.272 L 1.09 21.272 L 1.09 8.21 L 22.91 8.21 L 22.91 21.272 Z M 6.546 3.846 L 6.546 2.7560000000000002 L 17.454 2.7560000000000002 L 17.454 3.846 L 6.546 3.846 Z M 4.364 1.6360000000000001 L 5.454 1.6360000000000001 L 5.454 4.908 L 4.364 4.908 L 4.364 1.6360000000000001 Z M 18.546 1.6360000000000001 L 19.636 1.6360000000000001 L 19.636 4.908 L 18.546 4.908 L 18.546 1.6360000000000001 Z M 6.687 9.303 L 6.54 9.235 L 6.393 9.303 C 6.355 9.321 5.446 9.751 4.532 10.657 C 3.312 11.868 2.667 13.363 2.667 14.977 C 2.667 15.916 2.915 16.762 3.385 17.427 L 3.952 17.024 C 3.5620000000000003 16.47 3.364 15.782 3.364 14.977 C 3.364 14.783 3.374 14.593 3.394 14.404 L 6.191 17.202 L 6.191 18.252 C 5.551 18.193 4.977 17.977 4.5120000000000005 17.614 L 4.083 18.162 C 4.67 18.621 5.392 18.891 6.191 18.952 L 6.191 20.235 L 6.888 20.235 L 6.888 18.951 C 7.818 18.879 8.656 18.52 9.275 17.919 C 10.019 17.196 10.412 16.179 10.412 14.977 C 10.412 13.363 9.767 11.868 8.548 10.657 C 7.634 9.751 6.724 9.321 6.687 9.303 Z M 6.191 16.215 L 3.553 13.577 C 3.726 12.956 4.019 12.373 4.43 11.829 L 6.191 13.591 L 6.191 16.215 Z M 6.191 12.605 L 4.882 11.296 C 4.923 11.254 4.964 11.211 5.007 11.168 C 5.436 10.738 5.871 10.423 6.191 10.22 L 6.191 12.605 Z M 6.888 10.22 C 7.207 10.423 7.642 10.738 8.072 11.168 C 8.115 11.211 8.156 11.254 8.196 11.296 L 6.888 12.605 L 6.888 10.22 Z M 9.715 14.977 C 9.715 15.986 9.395 16.831 8.789 17.419 C 8.3 17.893 7.634 18.182 6.888 18.252 L 6.888 17.202 L 9.684 14.404 C 9.704 14.593 9.715 14.783 9.715 14.977 Z M 9.526 13.577 L 6.888 16.215 L 6.888 13.591 L 8.649000000000001 11.829 C 9.061 12.373 9.353 12.956 9.526 13.577 Z"></path></svg>