<svg xmlns="http://www.w3.org/2000/svg" viewBox="0 0 24 24" fill="rgb(102, 156, 210)">
    <path d="M 12 0 C 14.65 0 17.19 1.06 19.07 2.93 L 17.65 4.35 C 16.15 2.85 14.12 2 12 2 C 9.88 2 7.84 2.84 6.35 4.35 L 4.93 2.93 C 6.81 1.06 9.35 0 12 0 Z M 12 4 C 15.314 4 18 6.686 18 10 C 18 11.59 17.37 13.12 16.24 14.24 L 14.83 12.83 C 14.08 13.58 13.06 14 12 14 C 10.94 14 9.92 13.58 9.17 12.83 L 7.76 14.24 C 6.63 13.12 6 11.59 6 10 C 6 6.686 8.686 4 12 4 Z M 3.66 4.5 L 5.11 5.94 C 4.39 7.17 4 8.57 4 10 C 4 14.418 7.582 18 12 18 C 16.418 18 20 14.418 20 10 C 20 8.57 19.61 7.17 18.88 5.94 L 20.34 4.5 C 21.42 6.12 22 8.04 22 10 C 22 15.523 17.523 20 12 20 C 6.477 20 2 15.523 2 10 C 2 8.04 2.58 6.12 3.66 4.5 Z M 13.783 8.473 L 12.503 8.174 L 13.18 6.162 C 13.245 5.968 13.034 5.79 12.798 5.84 C 12.727 5.856 12.665 5.888 12.623 5.939 L 10.047 8.856 C 9.919 9.006 10.006 9.218 10.217 9.266 L 11.495 9.565 L 10.743 11.803 C 10.677 11.997 10.888 12.174 11.124 12.128 C 11.198 12.113 11.262 12.073 11.305 12.023 L 13.956 8.875 C 14.081 8.729 13.99 8.521 13.783 8.473 Z M 0.5 20.5 L 23.5 20.5 L 23.5 23.5 L 0.5 23.5 Z"></path>
</svg>