<svg xmlns="http://www.w3.org/2000/svg" viewBox="0 0 24 24" fill="rgb(102, 156, 210)">
    <path d="M 24.005 15.533 C 24.005 16.664 23.086 17.583 22.025 17.512 L 21.429 17.512 L 18.066 14.149 L 18.066 6.482 L 22.025 6.482 C 23.157 6.482 24.076 7.401 24.005 8.461 L 24.005 11.007 L 24.024 11.007 L 24.024 12.987 L 24.005 12.987 Z M 18.066 17.512 L 18.066 16.731 L 15.602 14.267 L 15.602 15.464 L 11.572 15.535 L 11.572 17.514 L 7.612 17.514 C 6.551 17.585 5.632 16.666 5.632 15.535 L 5.632 12.989 L -0.025 12.989 L -0.025 11.009 L 5.632 11.009 L 5.632 8.463 C 5.561 7.403 6.48 6.484 7.612 6.484 L 7.819 6.484 L 5.706 4.371 L 6.353 3.723 L 21.425 18.794 L 20.777 19.442 L 18.847 17.512 Z M 11.642 10.514 L 11.642 13.484 L 14.819 13.484 L 11.849 10.514 Z M 11.572 6.484 L 11.613 7.696 L 10.401 6.484 Z M 15.602 8.534 L 15.602 10.514 L 14.431 10.514 L 12.451 8.534 Z"></path>
</svg>