<svg xmlns="http://www.w3.org/2000/svg" viewBox="0 0 24 24" fill="rgb(102, 156, 210)">
    <path d="M 24.006 15.533 C 24.006 16.664 23.087 17.583 22.026 17.512 L 18.067 17.512 L 18.067 6.482 L 22.026 6.482 C 23.158 6.482 24.077 7.401 24.006 8.461 L 24.006 11.007 L 24.025 11.007 L 24.025 12.987 L 24.006 12.987 Z M 11.573 15.535 L 11.573 17.514 L 7.613 17.514 C 6.552 17.585 5.633 16.666 5.633 15.535 L 5.633 12.989 L -0.024 12.989 L -0.024 11.009 L 5.633 11.009 L 5.633 8.463 C 5.562 7.403 6.481 6.484 7.613 6.484 L 11.573 6.484 L 11.643 8.534 L 15.603 8.534 L 15.603 10.514 L 11.643 10.514 L 11.643 13.484 L 15.603 13.484 L 15.603 15.464 Z M 9.251 14.517 L 9.606 9.216 L 9.606 7 L 8.085 7 L 8.085 9.216 L 8.46 14.517 Z M 9.552 17 L 9.552 15.602 L 8.14 15.602 L 8.14 17 Z"></path>
</svg>