<svg xmlns="http://www.w3.org/2000/svg" viewBox="0 0 24 24" fill="rgb(102, 156, 210)">
    <path d="M 1.093 7.55 C -0.303 7.951 -0.383 9.87 0.975 10.376 C 1.201 10.46 1.192 10.451 1.375 10.769 C 1.46 10.918 1.647 11.236 1.79 11.476 C 1.932 11.715 2.049 11.918 2.049 11.926 C 2.049 11.934 2.082 11.989 2.123 12.049 C 2.214 12.183 2.214 12.231 2.126 12.42 C 1.723 13.286 2.322 14.327 3.304 14.468 L 3.545 14.503 L 3.646 14.669 C 3.701 14.76 3.82 14.961 3.909 15.115 C 4.694 16.46 4.626 16.357 4.791 16.442 C 4.944 16.52 21.629 16.53 22.001 16.452 C 22.937 16.257 23.672 15.601 23.94 14.723 C 23.978 14.598 23.982 14.549 23.957 14.539 C 23.938 14.532 20.871 14.523 17.141 14.519 C 9.634 14.511 10.274 14.529 10.104 14.317 C 9.911 14.078 9.986 13.709 10.259 13.555 L 10.389 13.482 L 17.195 13.474 L 24 13.467 L 23.98 13.401 C 23.728 12.573 23.262 12.04 22.496 11.707 C 22.106 11.537 22.248 11.545 19.525 11.534 C 18.142 11.528 17 11.514 16.988 11.501 C 16.976 11.489 16.952 11.407 16.936 11.319 C 16.644 9.762 15.219 8.543 13.663 8.518 C 13.385 8.513 13.347 8.519 13.184 8.598 C 12.909 8.731 12.219 9.175 12.111 9.289 C 12.102 9.297 12.023 9.364 11.934 9.436 C 11.273 9.974 10.604 10.72 10.286 11.273 L 10.15 11.511 L 8.458 11.518 L 6.767 11.526 L 6.707 11.459 C 6.532 11.268 5.99 10.515 6.011 10.495 C 6.024 10.482 6.208 10.466 6.418 10.46 C 8.202 10.405 8.596 8.117 6.916 7.569 L 6.69 7.495 L 3.98 7.497 C 1.506 7.499 1.254 7.504 1.093 7.55 M 5.003 8.512 C 5.026 8.573 5.026 9.388 5.003 9.449 C 4.975 9.521 1.388 9.52 1.235 9.447 C 0.869 9.273 0.871 8.707 1.239 8.524 C 1.404 8.443 4.972 8.431 5.003 8.512 M 6.799 8.566 C 7.286 8.937 6.989 9.505 6.317 9.489 L 5.977 9.481 L 5.968 9.011 C 5.958 8.406 5.922 8.459 6.339 8.471 C 6.671 8.48 6.693 8.485 6.799 8.566 M 6.985 12.492 C 7.013 12.51 7.021 12.635 7.014 13.013 L 7.006 13.511 L 5.189 13.519 C 3.558 13.526 3.361 13.522 3.276 13.479 C 2.84 13.258 2.869 12.649 3.322 12.503 C 3.436 12.467 6.928 12.455 6.985 12.492 M 8.687 12.514 C 9.121 12.693 9.141 13.255 8.721 13.47 C 8.597 13.534 8.041 13.553 8.005 13.495 C 7.972 13.441 7.966 12.544 7.998 12.504 C 8.044 12.448 8.544 12.455 8.687 12.514"></path>
</svg>