<svg xmlns="http://www.w3.org/2000/svg" viewBox="0 0 24 24" fill="rgb(102, 156, 210)">
    <path d="M 24.02 15.534 C 24.02 16.665 23.101 17.584 22.04 17.513 L 18.081 17.513 L 18.081 6.483 L 22.04 6.483 C 23.172 6.483 24.091 7.402 24.02 8.462 L 24.02 11.008 L 24.039 11.008 L 24.039 12.988 L 24.02 12.988 L 24.02 15.534 Z M 15.617 15.465 L 15.617 13.485 L 11.657 13.485 L 11.657 10.515 L 15.617 10.515 L 15.617 8.535 L 11.657 8.535 L 11.587 6.485 L 7.627 6.485 C 6.495 6.485 5.5760000000000005 7.404 5.647 8.464 L 5.647 11.01 L -0.01 11.01 L -0.01 12.99 L 5.647 12.99 L 5.647 15.536 C 5.647 16.667 6.566 17.586 7.627 17.515 L 11.587 17.515 L 11.587 15.536 L 15.617 15.465 Z"></path>
</svg>