<svg xmlns="http://www.w3.org/2000/svg" viewBox="0 0 24 24" fill="rgb(102, 156, 210)">
    <path d="M 24.02 15.534 C 24.02 16.665 23.101 17.584 22.04 17.513 L 18.081 17.513 L 18.081 6.483 L 22.04 6.483 C 23.172 6.483 24.091 7.402 24.02 8.462 L 24.02 11.008 L 24.039 11.008 L 24.039 12.988 L 24.02 12.988 Z M 11.587 15.536 L 11.587 17.515 L 7.627 17.515 C 6.566 17.586 5.647 16.667 5.647 15.536 L 5.647 12.99 L -0.01 12.99 L -0.01 11.01 L 5.647 11.01 L 5.647 8.464 C 5.576 7.404 6.495 6.485 7.627 6.485 L 11.587 6.485 L 11.657 8.535 L 15.617 8.535 L 15.617 10.515 L 11.657 10.515 L 11.657 13.485 L 15.617 13.485 L 15.617 15.465 Z M 6.731 12 C 6.731 10.896 7.626 10 8.731 10 C 9.835 10 10.731 10.896 10.731 12 C 10.731 13.105 9.835 14 8.731 14 C 7.626 14 6.731 13.105 6.731 12 Z M 6.231 12 C 6.231 13.375 7.348 14.5 8.731 14.5 C 10.112 14.5 11.231 13.381 11.231 12 C 11.231 10.619 10.112 9.5 8.731 9.5 C 7.35 9.5 6.231 10.619 6.231 12 Z M 8.481 10.75 L 8.481 12.25 L 9.793 13.038 L 9.981 12.73 L 8.856 12.063 L 8.856 10.75 Z"></path>
</svg>