<svg xmlns="http://www.w3.org/2000/svg" viewBox="0 0 24 24" fill="rgb(102, 156, 210)">
    <path d="M 24.006 15.533 C 24.006 16.664 23.087 17.583 22.026 17.512 L 18.067 17.512 L 18.067 6.482 L 22.026 6.482 C 23.158 6.482 24.077 7.401 24.006 8.461 L 24.006 11.007 L 24.025 11.007 L 24.025 12.987 L 24.006 12.987 Z M 11.573 15.535 L 11.573 17.514 L 7.613 17.514 C 6.552 17.585 5.633 16.666 5.633 15.535 L 5.633 12.989 L -0.024 12.989 L -0.024 11.009 L 5.633 11.009 L 5.633 8.463 C 5.562 7.403 6.481 6.484 7.613 6.484 L 11.573 6.484 L 11.643 8.534 L 15.603 8.534 L 15.603 10.514 L 11.643 10.514 L 11.643 13.484 L 15.603 13.484 L 15.603 15.464 Z M 9.074 14.032 C 9.082 13.652 9.108 13.377 9.154 13.208 C 9.199 13.039 9.27 12.889 9.365 12.759 C 9.46 12.628 9.663 12.426 9.973 12.151 C 10.435 11.742 10.745 11.395 10.903 11.11 C 11.062 10.824 11.141 10.512 11.141 10.174 C 11.141 9.589 10.915 9.091 10.464 8.679 C 10.013 8.266 9.409 8.06 8.652 8.06 C 7.936 8.06 7.361 8.252 6.926 8.636 C 6.491 9.02 6.229 9.573 6.141 10.296 L 7.119 10.412 C 7.204 9.873 7.382 9.476 7.653 9.223 C 7.924 8.969 8.262 8.842 8.668 8.842 C 9.087 8.842 9.441 8.983 9.73 9.263 C 10.019 9.543 10.163 9.868 10.163 10.238 C 10.163 10.442 10.114 10.63 10.015 10.803 C 9.917 10.976 9.703 11.208 9.373 11.498 C 9.044 11.789 8.815 12.01 8.689 12.162 C 8.516 12.369 8.391 12.575 8.314 12.78 C 8.208 13.051 8.155 13.374 8.155 13.747 C 8.155 13.81 8.156 13.905 8.16 14.032 Z M 9.185 15.94 L 9.185 14.857 L 8.102 14.857 L 8.102 15.94 Z"></path>
</svg>