<svg xmlns="http://www.w3.org/2000/svg" xmlns:xlink="http://www.w3.org/1999/xlink" viewBox="0 0 24 24" fill="rgb(102, 156, 210)">
    <path d="M 19.63 9.443 C 19.626 9.269 19.623 9.138 19.623 9.051 C 19.623 8.539 19.689 8.097 19.821 7.724 C 19.917 7.445 20.073 7.162 20.288 6.876 C 20.446 6.669 20.73 6.365 21.139 5.966 C 21.549 5.568 21.816 5.25 21.939 5.013 C 22.061 4.776 22.123 4.518 22.123 4.237 C 22.123 3.73 21.943 3.284 21.583 2.9 C 21.224 2.515 20.783 2.323 20.261 2.323 C 19.757 2.323 19.336 2.497 18.998 2.845 C 18.661 3.194 18.439 3.737 18.334 4.477 L 17.117 4.317 C 17.226 3.326 17.552 2.567 18.094 2.04 C 18.635 1.513 19.351 1.25 20.242 1.25 C 21.184 1.25 21.937 1.533 22.498 2.099 C 23.059 2.664 23.34 3.348 23.34 4.15 C 23.34 4.614 23.241 5.042 23.044 5.433 C 22.847 5.825 22.461 6.301 21.886 6.862 C 21.5 7.239 21.248 7.517 21.13 7.695 C 21.012 7.874 20.924 8.08 20.866 8.312 C 20.81 8.544 20.777 8.921 20.768 9.443 L 19.63 9.443 Z M 19.558 12.06 L 19.558 10.574 L 20.906 10.574 L 20.906 12.06 L 19.558 12.06 Z M 10 17.5 C 11.1 17.5 12 16.6 12 15.5 C 12 14.4 11.1 13.5 10 13.5 C 8.9 13.5 8 14.4 8 15.5 C 8 16.6 8.9 17.5 10 17.5 Z M 16 8.5 C 17.1 8.5 18 9.4 18 10.5 L 18 20.5 C 18 21.6 17.1 22.5 16 22.5 L 4 22.5 C 2.9 22.5 2 21.6 2 20.5 L 2 10.5 C 2 9.4 2.9 8.5 4 8.5 L 5 8.5 L 5 6.5 C 5 3.7 7.2 1.5 10 1.5 C 12.8 1.5 15 3.7 15 6.5 L 15 8.5 L 16 8.5 Z M 10 3.5 C 8.3 3.5 7 4.8 7 6.5 L 7 8.5 L 13 8.5 L 13 6.5 C 13 4.8 11.7 3.5 10 3.5 Z"/>
</svg>