<svg xmlns="http://www.w3.org/2000/svg" viewBox="0 0 24 24" fill="rgb(102, 156, 210)">
    <path d="M 19.78 2 C 21 2 22 3 22 4.22 L 22 19.78 C 22 19.999 21.968 20.21 21.909 20.409 L 18.357 16.857 C 19.388 15.51 20 13.827 20 12 C 20 7.582 16.418 4 12 4 C 10.173 4 8.49 4.612 7.143 5.643 L 3.591 2.091 C 3.79 2.032 4.001 2 4.22 2 Z M 19.78 22 L 4.22 22 C 3 22 2 21 2 19.78 L 2 4.22 C 2 3.934 2.054 3.661 2.153 3.41 L 0.362 1.619 L 1.069 0.912 L 23.093 22.936 L 22.386 23.643 L 20.59 21.847 C 20.339 21.946 20.066 22 19.78 22 Z M 4 12 C 4 16.418 7.582 20 12 20 C 13.889 20 15.625 19.346 16.994 18.251 L 5.749 7.006 C 4.654 8.375 4 10.111 4 12 Z M 13.5 7.5 C 13.5 8.328 12.828 9 12 9 C 11.172 9 10.5 8.328 10.5 7.5 C 10.5 6.672 11.172 6 12 6 C 12.828 6 13.5 6.672 13.5 7.5 Z M 9 12 C 9 12.828 8.328 13.5 7.5 13.5 C 6.66 13.5 6 12.83 6 12 C 6 11.172 6.672 10.5 7.5 10.5 C 8.328 10.5 9 11.172 9 12 Z M 18 12 C 18 12.828 17.328 13.5 16.5 13.5 C 15.672 13.5 15 12.828 15 12 C 15 11.172 15.672 10.5 16.5 10.5 C 17.328 10.5 18 11.172 18 12 Z"></path>
</svg>