<svg xmlns="http://www.w3.org/2000/svg" xmlns:xlink="http://www.w3.org/1999/xlink" viewBox="0 0 24 24" fill="rgb(102, 156, 210)">
    <path d="M 21.734 21.772 L 21.734 22.303 L 19.885 22.303 C 19.824 23.251 19.037 24 18.074 24 C 17.438 24 16.878 23.673 16.554 23.178 C 16.23 23.673 15.67 24 15.034 24 C 14.4 24 13.842 23.675 13.517 23.183 C 13.193 23.675 12.635 24 12.001 24 C 11.371 24 10.816 23.68 10.49 23.192 C 10.165 23.68 9.61 24 8.98 24 C 8.344 24 7.784 23.673 7.46 23.178 C 7.136 23.673 6.5760000000000005 24 5.939 24 C 4.937 24 4.124 23.188 4.124 22.185 L 4.124 9.523 C 4.124 8.52 4.937 7.707 5.939 7.707 C 6.087 7.707 6.23 7.725 6.367 7.758 C 6.191 7.196 6.095 6.591 6.095 5.953 C 6.095 3.83 7.228 1.867 9.067 0.806 C 13.029 -1.482 17.983 1.3780000000000001 17.983 5.953 C 17.983 6.57 17.887 7.173 17.707 7.744 C 17.825 7.72 17.948 7.707 18.074 7.707 C 19.076 7.707 19.889 8.52 19.889 9.523 L 19.889 21.772 L 21.734 21.772 Z M 7.769 22.137 C 7.769 22.806 8.311 23.349 8.98 23.349 C 9.613 23.349 10.132 22.863 10.186 22.244 C 10.186 22.225 10.185 22.205 10.185 22.185 L 10.185 11.604 C 9.274000000000001 11.301 8.442 10.782 7.769 10.094 L 7.769 22.137 Z M 10.795 22.185 C 10.795 22.205 10.795 22.225 10.794 22.244 C 10.848 22.863 11.368 23.349 12.001 23.349 C 12.669 23.349 13.212 22.806 13.212 22.137 L 13.212 11.789 C 12.395 11.956 11.574 11.941 10.795 11.771 L 10.795 22.185 Z M 13.823 22.137 C 13.823 22.806 14.365 23.349 15.034 23.349 C 15.703 23.349 16.245 22.806 16.245 22.137 L 16.245 10.153 C 15.882 10.517 15.468 10.837 15.011 11.101 C 14.623 11.325 14.225 11.5 13.823 11.629 L 13.823 22.137 Z M 16.863 9.57 L 16.863 22.137 C 16.863 22.806 17.405 23.349 18.074 23.349 C 18.743 23.349 19.285 22.806 19.285 22.137 L 19.285 9.57 C 19.285 8.901 18.743 8.359 18.074 8.359 C 17.811 8.359 17.567 8.443 17.368 8.586 C 17.226 8.874 17.06 9.151 16.873 9.413 C 16.866 9.464 16.863 9.517 16.863 9.57 Z M 2.267 21.779 L 4.118 21.779 L 4.118 22.31 L 2.267 22.31 L 2.267 21.779 Z M 4.728 9.57 L 4.728 22.137 C 4.728 22.806 5.271 23.349 5.939 23.349 C 6.608 23.349 7.151 22.806 7.151 22.137 L 7.151 9.57 C 7.151 9.48 7.141 9.392 7.122 9.308 C 6.98 9.101 6.85 8.884 6.735 8.657 C 6.522 8.472 6.244 8.359 5.939 8.359 C 5.271 8.359 4.728 8.901 4.728 9.57 Z M 9.371 10.574 C 12.928 12.628 17.374 10.061 17.374 5.953 C 17.374 4.047 16.357 2.286 14.707 1.333 C 11.149000000000001 -0.721 6.703 1.846 6.703 5.953 C 6.703 7.86 7.72 9.621 9.371 10.574 Z M 14.835 5.1 C 14.72 4.95 14.58 4.82 14.45 4.6899999999999995 C 14.115 4.39 13.735 4.175 13.415 3.8600000000000003 C 12.67 3.13 12.505 1.925 12.98 1 C 12.505 1.115 12.09 1.375 11.735 1.66 C 10.44 2.7 9.93 4.535 10.54 6.11 C 10.56 6.16 10.58 6.21 10.58 6.275 C 10.58 6.386 10.505 6.485 10.405 6.525 C 10.29 6.575 10.17 6.545 10.075 6.465 C 10.045 6.44 10.024 6.415 10.005 6.38 C 9.439 5.665 9.349 4.64 9.73 3.8200000000000003 C 8.895 4.5 8.44 5.65 8.505 6.735 C 8.535 6.985 8.565 7.235 8.65 7.485 C 8.72 7.785 8.855 8.085 9.005 8.35 C 9.545 9.215 10.48 9.835 11.485 9.96 C 12.555 10.095 13.7 9.9 14.52 9.16 C 15.435 8.33 15.755 7 15.285 5.86 L 15.22 5.73 C 15.115 5.5 14.835 5.1 14.835 5.1 M 13.255 8.25 C 13.115 8.37 12.885 8.501 12.705 8.55 C 12.145 8.75 11.585 8.47 11.255 8.141 C 11.85 8 12.205 7.5600000000000005 12.31 7.115 C 12.395 6.715 12.235 6.386 12.17 6 C 12.11 5.63 12.12 5.315 12.255 4.97 C 12.35 5.16 12.45 5.35 12.57 5.5 C 12.955 6 13.56 6.22 13.69 6.9 C 13.71 6.971 13.72 7.04 13.72 7.115 C 13.735 7.525 13.555 7.975 13.255 8.25 Z"></path>
</svg>