<svg xmlns="http://www.w3.org/2000/svg" xmlns:xlink="http://www.w3.org/1999/xlink" viewBox="0 0 24 24" fill="rgb(102, 156, 210)">
    <path d="M 16.722 7.955 L 15.837 8.19 L 16.072 9.075 L 15.132 9.33 L 14.822 8.165 L 13.822 7.6 L 12.572 8.325 L 12.572 9.455 L 13.422 10.31 L 12.717 11.015 L 12.072 10.37 L 11.427 11.015 L 10.717 10.31 L 11.572 9.455 L 11.572 8.325 L 10.347 7.605 L 9.347 8.17 L 9.037 9.335 L 8.072 9.075 L 8.307 8.195 L 7.422 7.96 L 7.682 6.995 L 8.847 7.305 L 9.847 6.74 L 9.847 5.295 L 8.847 4.73 L 7.682 5.04 L 7.422 4.075 L 8.307 3.84 L 8.072 2.955 L 9.032 2.695 L 9.322 3.86 L 10.322 4.425 L 11.572 3.705 L 11.572 2.575 L 10.717 1.72 L 11.427 1.015 L 12.072 1.66 L 12.717 1.015 L 13.427 1.72 L 12.572 2.575 L 12.572 3.705 L 13.797 4.425 L 14.797 3.86 L 15.107 2.695 L 16.072 2.955 L 15.842 3.84 L 16.727 4.075 L 16.467 5.04 L 15.302 4.73 L 14.302 5.295 L 14.302 6.735 L 15.302 7.3 L 16.467 6.99 Z M 10.822 6.735 L 12.072 7.46 L 13.322 6.735 L 13.322 5.295 L 12.072 4.57 L 10.822 5.295 Z M 21.734 21.772 L 21.734 22.303 L 19.885 22.303 C 19.824 23.251 19.037 24 18.074 24 C 17.438 24 16.878 23.673 16.554 23.178 C 16.23 23.673 15.67 24 15.034 24 C 14.4 24 13.842 23.675 13.517 23.183 C 13.193 23.675 12.635 24 12.001 24 C 11.371 24 10.816 23.68 10.49 23.192 C 10.165 23.68 9.61 24 8.98 24 C 8.344 24 7.784 23.673 7.46 23.178 C 7.136 23.673 6.576 24 5.939 24 C 4.937 24 4.124 23.188 4.124 22.185 L 4.124 9.523 C 4.124 8.52 4.937 7.707 5.939 7.707 C 6.087 7.707 6.23 7.725 6.367 7.758 C 6.191 7.196 6.095 6.591 6.095 5.953 C 6.095 3.83 7.228 1.867 9.067 0.806 C 13.029 -1.482 17.983 1.378 17.983 5.953 C 17.983 6.57 17.887 7.173 17.707 7.744 C 17.825 7.72 17.948 7.707 18.074 7.707 C 19.076 7.707 19.889 8.52 19.889 9.523 L 19.889 21.772 Z M 7.769 22.137 C 7.769 22.806 8.311 23.349 8.98 23.349 C 9.613 23.349 10.132 22.863 10.186 22.244 C 10.186 22.225 10.185 22.205 10.185 22.185 L 10.185 11.604 C 9.274 11.301 8.442 10.782 7.769 10.094 Z M 10.795 22.185 C 10.795 22.205 10.795 22.225 10.794 22.244 C 10.848 22.863 11.368 23.349 12.001 23.349 C 12.669 23.349 13.212 22.806 13.212 22.137 L 13.212 11.789 C 12.395 11.956 11.574 11.941 10.795 11.771 Z M 13.823 22.137 C 13.823 22.806 14.365 23.349 15.034 23.349 C 15.703 23.349 16.245 22.806 16.245 22.137 L 16.245 10.153 C 15.882 10.517 15.468 10.837 15.011 11.101 C 14.623 11.325 14.225 11.5 13.823 11.629 Z M 16.863 9.57 L 16.863 22.137 C 16.863 22.806 17.405 23.349 18.074 23.349 C 18.743 23.349 19.285 22.806 19.285 22.137 L 19.285 9.57 C 19.285 8.901 18.743 8.359 18.074 8.359 C 17.811 8.359 17.567 8.443 17.368 8.586 C 17.226 8.874 17.06 9.151 16.873 9.413 C 16.866 9.464 16.863 9.517 16.863 9.57 Z M 2.267 21.779 L 4.118 21.779 L 4.118 22.31 L 2.267 22.31 Z M 4.728 9.57 L 4.728 22.137 C 4.728 22.806 5.271 23.349 5.939 23.349 C 6.608 23.349 7.151 22.806 7.151 22.137 L 7.151 9.57 C 7.151 9.48 7.141 9.392 7.122 9.308 C 6.98 9.101 6.85 8.884 6.735 8.657 C 6.522 8.472 6.244 8.359 5.939 8.359 C 5.271 8.359 4.728 8.901 4.728 9.57 Z M 9.371 10.574 C 12.928 12.628 17.374 10.061 17.374 5.953 C 17.374 4.047 16.357 2.286 14.707 1.333 C 11.149 -0.721 6.703 1.846 6.703 5.953 C 6.703 7.86 7.72 9.621 9.371 10.574 Z"></path>
</svg>