<svg xmlns="http://www.w3.org/2000/svg" xmlns:xlink="http://www.w3.org/1999/xlink" viewBox="0 0 24 24" fill="rgb(102, 156, 210)">
    <path d="M 8.142 5.611 C 8.142 5.13 8.271 4.754 8.529 4.482 C 8.788 4.209 9.122 4.073 9.53 4.073 C 9.798 4.073 10.039 4.1370000000000005 10.254 4.265 C 10.469 4.393 10.633 4.571 10.745 4.8 C 10.858 5.029 10.914 5.288 10.914 5.578 C 10.914 5.872 10.855 6.135 10.737 6.367 C 10.618 6.599 10.45 6.775 10.232 6.894 C 10.015 7.013 9.78 7.073 9.528 7.073 C 9.256 7.073 9.012 7.007 8.797 6.875 C 8.582 6.743 8.419 6.564 8.308 6.335 C 8.197 6.107 8.142 5.866 8.142 5.611 Z M 8.538 5.617 C 8.538 5.967 8.632 6.242 8.819 6.443 C 9.007 6.644 9.243 6.745 9.526 6.745 C 9.815 6.745 10.053 6.643 10.239 6.44 C 10.426 6.237 10.519 5.949 10.519 5.5760000000000005 C 10.519 5.34 10.479 5.134 10.399000000000001 4.958 C 10.32 4.782 10.203 4.645 10.049 4.549 C 9.896 4.452 9.724 4.4030000000000005 9.532 4.4030000000000005 C 9.261 4.4030000000000005 9.027 4.496 8.831 4.683 C 8.636 4.87 8.538 5.181 8.538 5.617 Z M 11.428 7.024 L 11.428 4.125 L 13.384 4.125 L 13.384 4.467 L 11.812 4.467 L 11.812 5.364 L 13.172 5.364 L 13.172 5.7059999999999995 L 11.812 5.7059999999999995 L 11.812 7.024 L 11.428 7.024 Z M 13.902 7.024 L 13.902 4.125 L 15.858 4.125 L 15.858 4.467 L 14.286 4.467 L 14.286 5.364 L 15.646 5.364 L 15.646 5.7059999999999995 L 14.286 5.7059999999999995 L 14.286 7.024 L 13.902 7.024 Z M 21.734 21.772 L 21.734 22.303 L 19.885 22.303 C 19.824 23.251 19.037 24 18.074 24 C 17.438 24 16.878 23.673 16.554 23.178 C 16.23 23.673 15.67 24 15.034 24 C 14.4 24 13.842 23.675 13.517 23.183 C 13.193 23.675 12.635 24 12.001 24 C 11.371 24 10.816 23.68 10.49 23.192 C 10.165 23.68 9.61 24 8.98 24 C 8.344 24 7.784 23.673 7.46 23.178 C 7.136 23.673 6.5760000000000005 24 5.939 24 C 4.937 24 4.124 23.188 4.124 22.185 L 4.124 9.523 C 4.124 8.52 4.937 7.707 5.939 7.707 C 6.087 7.707 6.23 7.725 6.367 7.758 C 6.191 7.196 6.095 6.591 6.095 5.953 C 6.095 3.83 7.228 1.867 9.067 0.806 C 13.029 -1.482 17.983 1.3780000000000001 17.983 5.953 C 17.983 6.57 17.887 7.173 17.707 7.744 C 17.825 7.72 17.948 7.707 18.074 7.707 C 19.076 7.707 19.889 8.52 19.889 9.523 L 19.889 21.772 L 21.734 21.772 Z M 7.769 22.137 C 7.769 22.806 8.311 23.349 8.98 23.349 C 9.613 23.349 10.132 22.863 10.186 22.244 C 10.186 22.225 10.185 22.205 10.185 22.185 L 10.185 11.604 C 9.274000000000001 11.301 8.442 10.782 7.769 10.094 L 7.769 22.137 Z M 10.795 22.185 C 10.795 22.205 10.795 22.225 10.794 22.244 C 10.848 22.863 11.368 23.349 12.001 23.349 C 12.669 23.349 13.212 22.806 13.212 22.137 L 13.212 11.789 C 12.395 11.956 11.574 11.941 10.795 11.771 L 10.795 22.185 Z M 13.823 22.137 C 13.823 22.806 14.365 23.349 15.034 23.349 C 15.703 23.349 16.245 22.806 16.245 22.137 L 16.245 10.153 C 15.882 10.517 15.468 10.837 15.011 11.101 C 14.623 11.325 14.225 11.5 13.823 11.629 L 13.823 22.137 Z M 16.863 9.57 L 16.863 22.137 C 16.863 22.806 17.405 23.349 18.074 23.349 C 18.743 23.349 19.285 22.806 19.285 22.137 L 19.285 9.57 C 19.285 8.901 18.743 8.359 18.074 8.359 C 17.811 8.359 17.567 8.443 17.368 8.586 C 17.226 8.874 17.06 9.151 16.873 9.413 C 16.866 9.464 16.863 9.517 16.863 9.57 Z M 2.267 21.779 L 4.118 21.779 L 4.118 22.31 L 2.267 22.31 L 2.267 21.779 Z M 4.728 9.57 L 4.728 22.137 C 4.728 22.806 5.271 23.349 5.939 23.349 C 6.608 23.349 7.151 22.806 7.151 22.137 L 7.151 9.57 C 7.151 9.48 7.141 9.392 7.122 9.308 C 6.98 9.101 6.85 8.884 6.735 8.657 C 6.522 8.472 6.244 8.359 5.939 8.359 C 5.271 8.359 4.728 8.901 4.728 9.57 Z M 9.371 10.574 C 12.928 12.628 17.374 10.061 17.374 5.953 C 17.374 4.047 16.357 2.286 14.707 1.333 C 11.149000000000001 -0.721 6.703 1.846 6.703 5.953 C 6.703 7.86 7.72 9.621 9.371 10.574 Z"></path>
</svg>