<svg xmlns="http://www.w3.org/2000/svg" xmlns:xlink="http://www.w3.org/1999/xlink" viewBox="0 0 24 24" fill="rgb(102, 156, 210)">
    <path stroke-width="10" d="M 10.883 3.903 C 13.533 3.903 16.073 4.963 17.953 6.833 L 16.533 8.253 C 15.033 6.753 13.003 5.9030000000000005 10.883 5.9030000000000005 C 8.763 5.9030000000000005 6.723 6.743 5.233 8.253 L 3.813 6.833 C 5.693 4.963 8.233 3.903 10.883 3.903 M 2.543 8.403 L 3.993 9.843 C 3.273 11.073 2.883 12.473 2.883 13.903 C 2.883 18.321 6.465 21.903 10.883 21.903 C 15.301 21.903 18.883 18.321 18.883 13.903 C 18.883 12.473 18.493 11.073 17.763 9.843 L 19.223 8.403 C 20.303 10.023 20.883 11.943 20.883 13.903 C 20.883 19.426 16.406 23.903 10.883 23.903 C 5.36 23.903 0.883 19.426 0.883 13.903 C 0.883 11.943 1.463 10.023 2.543 8.403 M 10.883 7.9030000000000005 C 14.197 7.9030000000000005 16.883 10.589 16.883 13.903 C 16.883 15.493 16.253 17.023 15.123 18.143 L 13.713 16.733 C 12.963 17.483 11.943 17.903 10.883 17.903 C 9.823 17.903 8.803 17.483 8.053 16.733 L 6.643 18.143 C 5.513 17.023 4.883 15.493 4.883 13.903 C 4.883 10.589 7.569 7.9030000000000005 10.883 7.9030000000000005 M 10.883 9.903 C 10.331 9.903 9.883 10.350999999999999 9.883 10.903 C 9.883 11.455 10.331 11.903 10.883 11.903 C 11.435 11.903 11.883 11.455 11.883 10.903 C 11.883 10.350999999999999 11.435 9.903 10.883 9.903 Z M 23.755 2.6959999999999997 L 21.846 2.6959999999999997 L 21.846 2.06 L 22.925 0.7869999999999999 L 21.846 0.7869999999999999 L 21.846 0.15100000000000002 L 23.755 0.15100000000000002 L 23.755 0.7869999999999999 L 22.68 2.06 L 23.755 2.06 L 23.755 2.6959999999999997 M 21.21 3.969 L 19.3 3.969 L 19.3 3.333 L 20.379 2.06 L 19.3 2.06 L 19.3 1.424 L 21.21 1.424 L 21.21 2.06 L 20.134 3.333 L 21.21 3.333 L 21.21 3.969 M 18.664 5.242 L 16.755 5.242 L 16.755 4.606 L 17.834 3.333 L 16.755 3.333 L 16.755 2.6959999999999997 L 18.664 2.6959999999999997 L 18.664 3.333 L 17.589 4.606 L 18.664 4.606 L 18.664 5.242 Z"/>
</svg>