<svg xmlns="http://www.w3.org/2000/svg" xmlns:xlink="http://www.w3.org/1999/xlink" viewBox="0 0 24 24" fill="rgb(102, 156, 210)"><path d="M 5.954 14.611 C 5.897 14.611 5.841 14.6 5.789 14.577 C 5.7379999999999995 14.552 5.691 14.519 5.6530000000000005 14.477 C 5.615 14.434 5.588 14.383 5.57 14.328 C 5.554 14.273 5.548 14.215 5.556 14.159 C 5.556 14.11 6.218 9.235 10.523 9.235 C 10.62 9.235 10.715 9.272 10.789 9.337 C 10.862 9.403 10.909 9.494 10.921 9.59 C 11.048 10.859 10.671 12.127 9.870000000000001 13.119 C 9.009 14.116 7.689 14.611 5.954 14.611 Z M 10.134 10.059 C 7.5440000000000005 10.286 6.692 12.753 6.445 13.786999999999999 C 6.965 13.785 7.48 13.679 7.961 13.477 C 8.44 13.274000000000001 8.875 12.979 9.24 12.608 C 9.832 11.89 10.149000000000001 10.988 10.134 10.059 Z M 5.954 14.605 L 5.906 14.605 C 4.608 14.445 2.135 13.437 2.135 10.803 C 2.135 10.704 2.171 10.608 2.237 10.534 C 2.302 10.459 2.392 10.412 2.49 10.399000000000001 C 3.473 10.299 4.456 10.589 5.227 11.206 C 5.623 11.592 5.93 12.059 6.125 12.576 C 6.321 13.093 6.401 13.646 6.358 14.196 C 6.358 14.253 6.3469999999999995 14.309 6.324 14.362 C 6.3 14.414 6.267 14.46 6.224 14.499 C 6.149 14.565 6.054 14.603 5.954 14.605 Z M 2.981 11.191 C 3.191 12.872 4.731 13.491 5.529 13.701 C 5.507 12.986 5.206 12.308 4.694 11.81 C 4.209 11.416 3.605 11.199 2.981 11.191 Z M 5.954 16.836 C 5.848 16.836 5.744 16.793 5.669 16.717 C 5.592 16.642 5.551 16.539 5.551 16.432 L 5.551 14.196 C 5.551 14.089 5.592 13.986 5.669 13.911 C 5.744 13.835 5.848 13.792 5.954 13.792 C 6.062 13.792 6.164 13.835 6.24 13.911 C 6.316 13.986 6.358 14.089 6.358 14.196 L 6.358 16.421 C 6.36 16.475 6.351 16.529 6.333 16.58 C 6.313 16.63 6.283 16.677 6.246 16.715 C 6.208 16.755 6.162 16.784 6.113 16.805 C 6.062 16.826 6.009 16.836 5.954 16.836 Z M 7.355 20.235 L 4.77 20.235 C 4.238 20.226 3.732 20.011 3.359 19.632 C 2.988 19.255 2.777 18.746 2.776 18.215 L 2.776 16.432 C 2.776 16.325 2.818 16.222 2.894 16.146 C 2.9699999999999998 16.07 3.073 16.028 3.18 16.028 L 8.97 16.028 C 9.078 16.028 9.181 16.07 9.256 16.146 C 9.332 16.222 9.375 16.325 9.375 16.432 L 9.375 18.215 C 9.373 18.75 9.16 19.264 8.782 19.642 C 8.403 20.021 7.89 20.234 7.355 20.235 Z M 3.584 16.836 L 3.584 18.215 C 3.584 18.532 3.708 18.836 3.9290000000000003 19.062 C 4.151 19.289 4.453 19.42 4.77 19.427 L 7.355 19.427 C 7.677 19.427 7.985 19.299 8.211 19.072 C 8.439 18.845 8.567 18.537 8.567 18.215 L 8.567 16.836 L 3.584 16.836 Z M 19.779 10.228 L 21.779 10.228 L 21.779 12.228 L 19.779 12.228 L 19.779 10.228 Z M 16.533 10.228 L 18.533 10.228 L 18.533 12.228 L 16.533 12.228 L 16.533 10.228 Z M 13.287 10.228 L 15.287 10.228 L 15.287 12.228 L 13.287 12.228 L 13.287 10.228 Z M 19.779 14.066 L 21.779 14.066 L 21.779 16.066 L 19.779 16.066 L 19.779 14.066 Z M 16.533 14.066 L 18.533 14.066 L 18.533 16.066 L 16.533 16.066 L 16.533 14.066 Z M 13.287 14.066 L 15.287 14.066 L 15.287 16.066 L 13.287 16.066 L 13.287 14.066 Z M 19.779 17.904 L 21.779 17.904 L 21.779 19.904 L 19.779 19.904 L 19.779 17.904 Z M 16.533 17.904 L 18.533 17.904 L 18.533 19.904 L 16.533 19.904 L 16.533 17.904 Z M 13.287 17.904 L 15.287 17.904 L 15.287 19.904 L 13.287 19.904 L 13.287 17.904 Z M 20.728 3.846 L 22.91 3.846 L 22.91 7.09 L 1.09 7.09 L 1.09 3.846 L 3.2720000000000002 3.846 L 3.2720000000000002 2.7560000000000002 L 0 2.7560000000000002 L 0 22.364 L 24 22.364 L 24 2.7560000000000002 L 20.728 2.7560000000000002 L 20.728 3.846 Z M 22.91 21.272 L 1.09 21.272 L 1.09 8.21 L 22.91 8.21 L 22.91 21.272 Z M 6.546 3.846 L 6.546 2.7560000000000002 L 17.454 2.7560000000000002 L 17.454 3.846 L 6.546 3.846 Z M 4.364 1.6360000000000001 L 5.454 1.6360000000000001 L 5.454 4.908 L 4.364 4.908 L 4.364 1.6360000000000001 Z M 18.546 1.6360000000000001 L 19.636 1.6360000000000001 L 19.636 4.908 L 18.546 4.908 L 18.546 1.6360000000000001 Z"></path></svg>