<svg xmlns="http://www.w3.org/2000/svg" xmlns:xlink="http://www.w3.org/1999/xlink" viewBox="0 0 24 24" fill="rgb(102, 156, 210)">
    <path stroke-width="10" d="M 14.5 11.75 C 10 12.75 8.95 15.835 7.91 18.42 L 8.855 18.75 L 9.33 17.6 C 9.57 17.685 9.82 17.75 10 17.75 C 15.5 17.75 17 9.25 17 9.25 C 16.5 10.25 13 10.375 10.5 10.875 C 8 11.375 7 13.5 7 14.5 C 7 15.5 7.875 16.375 7.875 16.375 C 9.5 11.75 14.5 11.75 14.5 11.75 Z M 10.398 0.002 C 10.456 0.001 10.456 0.001 10.514 0.001 C 10.641 0 10.768 0 10.895 0.001 C 10.984 0.001 11.072 0.001 11.16 0 C 11.345 0 11.53 0 11.715 0.001 C 11.952 0.003 12.189 0.002 12.427 0.001 C 12.609 0 12.791 0 12.974 0.001 C 13.061 0.001 13.148 0.001 13.236 0 C 13.358 0 13.48 0 13.602 0.002 C 13.639 0.001 13.675 0.001 13.712 0 C 13.871 0.003 13.975 0.021 14.112 0.10300000000000001 C 14.23 0.29500000000000004 14.218 0.464 14.214 0.6849999999999999 C 14.214 0.731 14.214 0.777 14.214 0.8240000000000001 C 14.214 0.975 14.212 1.126 14.211 1.2770000000000001 C 14.21 1.3820000000000001 14.21 1.487 14.21 1.591 C 14.209 1.867 14.207 2.143 14.205 2.419 C 14.203 2.7 14.202 2.981 14.201 3.263 C 14.199 3.815 14.195 4.367 14.191 4.9190000000000005 C 14.238 4.9190000000000005 14.238 4.9190000000000005 14.285 4.9190000000000005 C 15.042 4.915 15.798 4.913 16.554 4.911 C 16.92 4.91 17.286 4.909 17.652 4.907 C 17.971 4.906 18.289 4.905 18.608 4.905 C 18.777 4.904 18.946 4.904 19.115 4.9030000000000005 C 19.303 4.902 19.491 4.902 19.68 4.902 C 19.736 4.901 19.792 4.9 19.85 4.9 C 19.927 4.9 19.927 4.9 20.005 4.901 C 20.05 4.9 20.094 4.9 20.14 4.9 C 20.279 4.923 20.324 4.959 20.406 5.072 C 20.426 5.236 20.426 5.236 20.427 5.438 C 20.427 5.474 20.427 5.509 20.427 5.546 C 20.427 5.621 20.427 5.696 20.426 5.771 C 20.425 5.8870000000000005 20.426 6.001 20.427 6.117 C 20.427 6.19 20.427 6.263 20.427 6.336 C 20.426 6.402 20.426 6.469 20.426 6.537 C 20.406 6.702 20.406 6.702 20.342 6.788 C 20.232 6.871 20.175 6.873 20.038 6.87 C 19.997 6.869 19.956 6.869 19.914 6.868 C 19.872 6.867 19.829 6.866 19.785 6.864 C 19.742 6.864 19.699 6.863 19.655 6.862 C 19.549 6.861 19.443 6.8580000000000005 19.337 6.855 C 19.337 6.891 19.337 6.926 19.337 6.963 C 19.341 9.078 19.345 11.194 19.347 13.309 C 19.347 13.563 19.347 13.816 19.348 14.07 C 19.348 14.121 19.348 14.171 19.348 14.223 C 19.349 15.042 19.35 15.861 19.352 16.68 C 19.354 17.52 19.355 18.36 19.356 19.2 C 19.356 19.718 19.357 20.237 19.359 20.755 C 19.36 21.11 19.36 21.466 19.36 21.821 C 19.36 22.026 19.36 22.231 19.361 22.436 C 19.362 22.624 19.362 22.812 19.361 22.999 C 19.361 23.1 19.362 23.2 19.363 23.3 C 19.362 23.36 19.362 23.419 19.362 23.48 C 19.362 23.531 19.362 23.583 19.362 23.636 C 19.33 23.806 19.267 23.867 19.133 23.973 C 19.02 23.999 19.02 23.999 18.897 23.999 C 18.827 23.999 18.827 23.999 18.756 24 C 18.706 24 18.657 23.999 18.606 23.998 C 18.554 23.998 18.503 23.999 18.45 23.999 C 18.341 23.999 18.233 23.998 18.124 23.997 C 17.958 23.995 17.792 23.996 17.626 23.996 C 17.52 23.996 17.415 23.996 17.31 23.995 C 17.235 23.995 17.235 23.995 17.159 23.996 C 17.112 23.995 17.066 23.994 17.018 23.994 C 16.978 23.993 16.937 23.993 16.895 23.993 C 16.763 23.968 16.718 23.925 16.636 23.82 C 16.603 23.706 16.603 23.706 16.582 23.573 C 16.574 23.524 16.566 23.476 16.558 23.426 C 16.55 23.375 16.542 23.325 16.534 23.273 C 16.475 22.729 16.475 22.729 16.208 22.273 C 15.871 22.031 15.522 22.052 15.121 22.055 C 15.046 22.055 14.97 22.054 14.894 22.054 C 14.69 22.053 14.485 22.053 14.28 22.054 C 14.066 22.054 13.851 22.054 13.636 22.054 C 13.276 22.053 12.916 22.054 12.555 22.055 C 12.139 22.056 11.723 22.056 11.307 22.054 C 10.949 22.053 10.591 22.053 10.233 22.054 C 10.02 22.054 9.806000000000001 22.054 9.593 22.053 C 9.392 22.053 9.192 22.053 8.991 22.055 C 8.917 22.055 8.844 22.055 8.77 22.054 C 8.362 22.051 8.032 22.055 7.721 22.343 C 7.584 22.517 7.5440000000000005 22.667 7.514 22.885 C 7.506 22.938 7.498 22.992 7.489 23.047 C 7.474 23.16 7.458 23.272 7.442 23.385 C 7.434 23.438 7.426 23.492 7.418 23.547 C 7.411 23.596 7.405 23.644 7.398 23.695 C 7.359 23.838 7.327 23.882 7.211 23.973 C 7.103 23.993 7.103 23.993 6.976 23.994 C 6.905 23.995 6.905 23.995 6.833 23.996 C 6.756 23.995 6.756 23.995 6.678 23.995 C 6.625 23.995 6.573 23.996 6.519 23.996 C 6.407 23.996 6.296 23.996 6.185 23.996 C 6.015 23.995 5.844 23.997 5.6739999999999995 23.998 C 5.566 23.999 5.458 23.999 5.35 23.998 C 5.299 23.999 5.248 24 5.195 24 C 5.148 24 5.1 23.999 5.051 23.999 C 5.01 23.999 4.968 23.999 4.925 23.999 C 4.817 23.973 4.817 23.973 4.735 23.888 C 4.647 23.741 4.645 23.651 4.645 23.48 C 4.645 23.421 4.644 23.361 4.644 23.3 C 4.645 23.202 4.645 23.202 4.645 23.103 C 4.645 23.033 4.645 22.963 4.645 22.893 C 4.645 22.7 4.645 22.508 4.646 22.316 C 4.647 22.108 4.647 21.901 4.646 21.693 C 4.646 21.334 4.647 20.975 4.648 20.615 C 4.649 20.096 4.649 19.576 4.649 19.056 C 4.65 18.213 4.651 17.37 4.652 16.527 C 4.654 15.708 4.655 14.889 4.655 14.07 C 4.655 14.02 4.655 13.969 4.656 13.917 C 4.656 13.664 4.656 13.411 4.656 13.158 C 4.658 11.057 4.66 8.956 4.664 6.855 C 4.599 6.857 4.535 6.8580000000000005 4.469 6.86 C 4.384 6.862 4.299 6.863 4.215 6.864 C 4.172 6.866 4.13 6.867 4.086 6.868 C 4.025 6.869 4.025 6.869 3.9619999999999997 6.87 C 3.906 6.871 3.906 6.871 3.848 6.872 C 3.717 6.85 3.673 6.808 3.594 6.702 C 3.574 6.537 3.574 6.537 3.574 6.336 C 3.573 6.3 3.573 6.265 3.573 6.228 C 3.573 6.1530000000000005 3.573 6.078 3.574 6.002 C 3.575 5.8870000000000005 3.574 5.772 3.573 5.657 C 3.573 5.584 3.573 5.511 3.574 5.438 C 3.574 5.371 3.574 5.305 3.574 5.236 C 3.594 5.072 3.594 5.072 3.656 4.986 C 3.775 4.898 3.847 4.9 3.995 4.901 C 4.047 4.9 4.098 4.9 4.151 4.9 C 4.207 4.9 4.263 4.901 4.321 4.902 C 4.38 4.902 4.439 4.902 4.5 4.902 C 4.696 4.902 4.892 4.9030000000000005 5.088 4.904 C 5.224 4.904 5.359 4.904 5.495 4.905 C 5.816 4.905 6.1370000000000005 4.906 6.458 4.908 C 6.823 4.91 7.189 4.91 7.554 4.911 C 8.306 4.913 9.058 4.916 9.809 4.9190000000000005 C 9.809 4.861 9.809 4.802 9.808 4.742 C 9.804 4.194 9.801 3.645 9.799 3.096 C 9.798 2.814 9.796 2.532 9.794 2.25 C 9.792 1.978 9.791 1.705 9.79 1.433 C 9.79 1.329 9.789 1.225 9.788 1.121 C 9.786 0.976 9.786 0.8310000000000001 9.786 0.6849999999999999 C 9.786 0.642 9.785 0.599 9.784 0.555 C 9.785 0.37 9.791 0.262 9.889 0.10300000000000001 C 10.057 0.001 10.206 -0.001 10.398 0.002 Z M 5.224 6.855 C 5.224 12.319 5.224 17.783 5.224 23.413 C 5.779 23.413 6.334 23.413 6.905 23.413 C 6.939 23.144 6.973 22.875 7.007 22.598 C 7.17 22.137 7.378 21.848 7.823 21.63 C 7.999 21.572 8.165 21.572 8.35 21.571 C 8.45 21.571 8.45 21.571 8.551 21.571 C 8.625 21.571 8.699 21.57 8.773 21.57 C 8.85 21.57 8.928 21.57 9.006 21.57 C 9.217 21.569 9.427 21.569 9.638 21.568 C 9.77 21.568 9.902 21.568 10.034 21.568 C 10.447 21.567 10.86 21.567 11.273 21.566 C 11.749 21.566 12.225 21.565 12.701 21.564 C 13.069 21.563 13.437 21.562 13.806000000000001 21.562 C 14.026 21.562 14.245 21.562 14.465 21.561 C 14.672 21.56 14.879 21.56 15.086 21.56 C 15.162 21.56 15.237 21.56 15.313 21.56 C 15.84 21.556 16.26 21.576 16.66 21.95 C 16.958 22.282 16.99 22.678 17.044 23.107 C 17.061 23.208 17.078 23.309 17.095 23.413 C 17.65 23.413 18.204 23.413 18.776 23.413 C 18.776 17.949 18.776 12.485 18.776 6.855 C 14.304 6.855 9.832 6.855 5.224 6.855 Z M 10.37 0.588 C 11.446 0.588 12.522 0.588 13.63 0.588 C 13.63 2.018 13.63 3.447 13.63 4.9190000000000005 C 12.554 4.9190000000000005 11.478 4.9190000000000005 10.37 4.9190000000000005 C 10.37 3.49 10.37 2.061 10.37 0.588 Z M 4.103 5.479 C 9.315 5.479 14.527 5.479 19.897 5.479 C 19.897 5.748 19.897 6.017 19.897 6.295 C 14.685 6.295 9.473 6.295 4.103 6.295 C 4.103 6.026 4.103 5.757 4.103 5.479 Z"/>
</svg>