<svg xmlns="http://www.w3.org/2000/svg" xmlns:xlink="http://www.w3.org/1999/xlink" viewBox="0 0 24 24" fill="rgb(102, 156, 210)">
    <path stroke-width="10" d="M 10.41 0.063 C 10.468 0.063 10.468 0.063 10.526 0.062 C 10.653 0.061 10.78 0.062 10.907 0.063 C 10.996 0.063 11.084 0.062 11.172 0.062 C 11.357 0.062 11.542 0.062 11.727 0.063 C 11.964 0.064 12.201 0.064 12.439 0.062 C 12.621 0.062 12.803 0.062 12.986 0.062 C 13.073 0.063 13.16 0.062 13.248 0.062 C 13.37 0.061 13.492 0.062 13.614 0.063 C 13.651 0.063 13.687 0.063 13.724 0.062 C 13.883 0.065 13.987 0.082 14.124 0.165 C 14.242 0.357 14.23 0.526 14.226 0.747 C 14.226 0.793 14.226 0.838 14.226 0.886 C 14.226 1.037 14.224 1.188 14.223 1.339 C 14.222 1.444 14.222 1.548 14.222 1.653 C 14.221 1.929 14.219 2.205 14.217 2.48 C 14.215 2.762 14.214 3.043 14.213 3.324 C 14.211 3.877 14.207 4.429 14.203 4.981 C 14.25 4.98 14.25 4.98 14.297 4.98 C 15.054 4.977 15.81 4.974 16.566 4.973 C 16.932 4.972 17.298 4.971 17.664 4.969 C 17.983 4.968 18.301 4.967 18.62 4.966 C 18.789 4.966 18.958 4.966 19.127 4.965 C 19.315 4.963 19.503 4.963 19.692 4.963 C 19.748 4.963 19.804 4.962 19.862 4.962 C 19.939 4.962 19.939 4.962 20.017 4.962 C 20.062 4.962 20.106 4.962 20.152 4.962 C 20.291 4.985 20.336 5.02 20.418 5.134 C 20.438 5.298 20.438 5.298 20.439 5.5 C 20.439 5.535 20.439 5.571 20.439 5.608 C 20.439 5.683 20.439 5.758 20.438 5.833 C 20.438 5.948 20.438 6.063 20.439 6.178 C 20.439 6.251 20.439 6.325 20.439 6.398 C 20.439 6.464 20.438 6.531 20.438 6.599 C 20.418 6.764 20.418 6.764 20.354 6.85 C 20.244 6.933 20.187 6.934 20.05 6.932 C 20.009 6.931 19.968 6.931 19.926 6.93 C 19.884 6.929 19.841 6.928 19.798 6.926 C 19.754 6.926 19.711 6.925 19.667 6.924 C 19.561 6.922 19.455 6.92 19.349 6.917 C 19.349 6.952 19.349 6.988 19.349 7.025 C 19.353 9.14 19.357 11.255 19.359 13.371 C 19.359 13.624 19.359 13.878 19.36 14.132 C 19.36 14.183 19.36 14.233 19.36 14.285 C 19.361 15.104 19.362 15.923 19.364 16.742 C 19.366 17.582 19.367 18.422 19.368 19.261 C 19.368 19.78 19.369 20.298 19.371 20.817 C 19.372 21.172 19.372 21.527 19.372 21.883 C 19.372 22.088 19.372 22.293 19.373 22.498 C 19.374 22.686 19.374 22.873 19.373 23.061 C 19.373 23.161 19.374 23.262 19.375 23.362 C 19.374 23.421 19.374 23.481 19.374 23.542 C 19.374 23.593 19.374 23.644 19.374 23.697 C 19.342 23.868 19.279 23.928 19.145 24.035 C 19.032 24.06 19.032 24.06 18.909 24.06 C 18.839 24.061 18.839 24.061 18.768 24.062 C 18.719 24.061 18.669 24.061 18.618 24.06 C 18.566 24.06 18.515 24.06 18.462 24.06 C 18.353 24.06 18.245 24.06 18.137 24.059 C 17.97 24.057 17.804 24.058 17.638 24.058 C 17.532 24.058 17.427 24.058 17.322 24.057 C 17.247 24.057 17.247 24.057 17.171 24.057 C 17.124 24.057 17.078 24.056 17.03 24.056 C 16.99 24.055 16.949 24.055 16.907 24.055 C 16.775 24.03 16.73 23.987 16.648 23.882 C 16.615 23.767 16.615 23.767 16.594 23.634 C 16.586 23.586 16.578 23.537 16.57 23.488 C 16.562 23.437 16.554 23.386 16.547 23.334 C 16.487 22.791 16.487 22.791 16.22 22.335 C 15.883 22.093 15.534 22.114 15.133 22.117 C 15.058 22.116 14.982 22.116 14.906 22.116 C 14.702 22.114 14.497 22.115 14.292 22.116 C 14.078 22.116 13.863 22.116 13.649 22.115 C 13.288 22.115 12.928 22.115 12.567 22.117 C 12.151 22.118 11.735 22.118 11.319 22.116 C 10.961 22.115 10.603 22.115 10.245 22.115 C 10.032 22.116 9.818 22.116 9.605 22.115 C 9.404 22.114 9.203 22.115 9.003 22.116 C 8.929 22.117 8.856 22.117 8.782 22.116 C 8.374 22.113 8.044 22.117 7.733 22.405 C 7.596 22.578 7.556 22.729 7.526 22.946 C 7.518 23 7.51 23.054 7.501 23.109 C 7.486 23.221 7.47 23.334 7.454 23.446 C 7.446 23.5 7.438 23.553 7.43 23.609 C 7.423 23.657 7.417 23.706 7.41 23.757 C 7.371 23.9 7.339 23.944 7.223 24.035 C 7.115 24.055 7.115 24.055 6.988 24.056 C 6.917 24.056 6.917 24.056 6.845 24.057 C 6.768 24.057 6.768 24.057 6.69 24.057 C 6.637 24.057 6.585 24.058 6.531 24.058 C 6.419 24.058 6.308 24.058 6.197 24.058 C 6.027 24.057 5.856 24.059 5.686 24.06 C 5.578 24.06 5.47 24.06 5.362 24.06 C 5.311 24.061 5.26 24.061 5.207 24.062 C 5.16 24.061 5.112 24.061 5.063 24.06 C 5.022 24.06 4.98 24.06 4.937 24.06 C 4.829 24.035 4.829 24.035 4.747 23.949 C 4.659 23.803 4.657 23.712 4.657 23.542 C 4.657 23.483 4.656 23.423 4.656 23.362 C 4.657 23.264 4.657 23.264 4.657 23.164 C 4.657 23.095 4.657 23.025 4.657 22.955 C 4.657 22.762 4.657 22.57 4.658 22.377 C 4.659 22.17 4.659 21.963 4.658 21.755 C 4.658 21.396 4.659 21.036 4.66 20.677 C 4.661 20.157 4.661 19.638 4.661 19.118 C 4.662 18.275 4.663 17.432 4.664 16.589 C 4.666 15.77 4.667 14.951 4.667 14.132 C 4.667 14.082 4.667 14.031 4.667 13.979 C 4.668 13.726 4.668 13.473 4.668 13.22 C 4.67 11.119 4.672 9.018 4.676 6.917 C 4.611 6.918 4.547 6.92 4.481 6.922 C 4.396 6.923 4.311 6.925 4.227 6.926 C 4.184 6.927 4.142 6.929 4.098 6.93 C 4.037 6.931 4.037 6.931 3.974 6.932 C 3.918 6.933 3.918 6.933 3.86 6.934 C 3.729 6.912 3.685 6.87 3.606 6.764 C 3.586 6.599 3.586 6.599 3.586 6.398 C 3.585 6.362 3.585 6.326 3.585 6.29 C 3.585 6.215 3.585 6.139 3.586 6.064 C 3.587 5.949 3.586 5.834 3.585 5.719 C 3.585 5.646 3.585 5.573 3.586 5.5 C 3.586 5.433 3.586 5.367 3.586 5.298 C 3.606 5.134 3.606 5.134 3.668 5.048 C 3.787 4.959 3.859 4.962 4.007 4.962 C 4.058 4.962 4.11 4.962 4.162 4.962 C 4.219 4.962 4.275 4.963 4.333 4.963 C 4.392 4.963 4.451 4.963 4.512 4.963 C 4.708 4.963 4.904 4.965 5.1 4.966 C 5.236 4.966 5.371 4.966 5.507 4.966 C 5.828 4.967 6.149 4.968 6.47 4.97 C 6.835 4.971 7.201 4.972 7.566 4.973 C 8.318 4.975 9.07 4.977 9.821 4.981 C 9.821 4.922 9.821 4.864 9.82 4.804 C 9.816 4.255 9.813 3.707 9.811 3.158 C 9.81 2.876 9.808 2.594 9.806 2.312 C 9.804 2.039 9.803 1.767 9.802 1.495 C 9.802 1.391 9.801 1.287 9.8 1.183 C 9.798 1.038 9.798 0.892 9.798 0.747 C 9.798 0.704 9.797 0.661 9.796 0.616 C 9.797 0.432 9.803 0.324 9.901 0.165 C 10.069 0.063 10.218 0.061 10.41 0.063 Z M 5.236 6.917 C 5.236 12.381 5.236 17.845 5.236 23.474 C 5.791 23.474 6.346 23.474 6.917 23.474 C 6.951 23.205 6.985 22.936 7.019 22.659 C 7.182 22.199 7.39 21.909 7.834 21.691 C 8.011 21.633 8.177 21.634 8.362 21.633 C 8.462 21.633 8.462 21.633 8.563 21.632 C 8.637 21.632 8.711 21.632 8.785 21.632 C 8.862 21.632 8.94 21.632 9.018 21.631 C 9.229 21.631 9.439 21.63 9.65 21.63 C 9.782 21.63 9.914 21.63 10.046 21.63 C 10.459 21.629 10.872 21.628 11.285 21.628 C 11.761 21.628 12.237 21.627 12.713 21.626 C 13.081 21.625 13.45 21.624 13.818 21.624 C 14.038 21.624 14.257 21.623 14.477 21.623 C 14.684 21.622 14.891 21.622 15.098 21.622 C 15.174 21.622 15.25 21.622 15.325 21.621 C 15.852 21.618 16.272 21.638 16.672 22.012 C 16.97 22.344 17.002 22.74 17.056 23.169 C 17.073 23.27 17.09 23.371 17.107 23.474 C 17.662 23.474 18.216 23.474 18.788 23.474 C 18.788 18.01 18.788 12.546 18.788 6.917 C 14.316 6.917 9.844 6.917 5.236 6.917 Z M 11.187 12.767 C 11.255 12.767 11.323 12.767 11.391 12.767 C 11.533 12.766 11.675 12.766 11.817 12.766 C 11.998 12.766 12.179 12.765 12.359 12.765 C 12.5 12.764 12.64 12.764 12.78 12.764 C 12.879 12.764 12.978 12.763 13.076 12.763 C 14.071 12.765 14.931 13.132 15.653 13.813 C 16.504 14.696 16.682 15.772 16.668 16.944 C 16.668 17.043 16.668 17.142 16.667 17.242 C 16.667 17.5 16.665 17.759 16.662 18.018 C 16.66 18.329 16.659 18.641 16.658 18.953 C 16.656 19.424 16.652 19.896 16.648 20.367 C 15.892 20.367 15.135 20.367 14.356 20.367 C 14.457 20.249 14.557 20.131 14.661 20.01 C 15.225 19.266 15.368 18.476 15.273 17.565 C 15.227 17.346 15.163 17.155 15.069 16.953 C 15.046 16.891 15.023 16.829 14.999 16.765 C 14.923 16.631 14.923 16.631 14.754 16.603 C 14.707 16.601 14.659 16.599 14.61 16.597 C 14.48 16.803 14.374 17.019 14.268 17.238 C 14.204 17.359 14.142 17.463 14.05 17.565 C 14 17.565 13.949 17.565 13.897 17.565 C 13.88 17.521 13.864 17.478 13.846 17.433 C 13.713 17.092 13.573 16.756 13.419 16.423 C 13.159 15.86 12.946 15.301 12.818 14.693 C 12.793 14.507 12.793 14.507 12.674 14.406 C 12.208 14.406 11.791 14.798 11.471 15.099 C 10.819 15.758 10.365 16.622 10.127 17.514 C 10.093 17.514 10.06 17.514 10.025 17.514 C 9.801 16.77 9.801 16.77 9.77 16.393 C 9.625 16.354 9.625 16.354 9.465 16.342 C 9.289 16.465 9.217 16.671 9.131 16.861 C 9.115 16.893 9.1 16.926 9.084 16.959 C 8.888 17.38 8.836 17.76 8.838 18.221 C 8.837 18.268 8.836 18.315 8.835 18.364 C 8.835 19.068 9.115 19.735 9.601 20.243 C 9.669 20.316 9.669 20.316 9.669 20.367 C 8.912 20.367 8.155 20.367 7.376 20.367 C 7.37 19.289 7.37 19.289 7.368 18.826 C 7.368 18.511 7.367 18.197 7.364 17.882 C 7.363 17.628 7.362 17.374 7.362 17.12 C 7.361 17.023 7.361 16.927 7.36 16.831 C 7.35 15.678 7.567 14.683 8.371 13.807 C 9.181 13.028 10.086 12.768 11.187 12.767 Z M 10.382 0.65 C 11.458 0.65 12.534 0.65 13.642 0.65 C 13.642 2.079 13.642 3.508 13.642 4.981 C 12.566 4.981 11.49 4.981 10.382 4.981 C 10.382 3.552 10.382 2.123 10.382 0.65 Z M 4.115 5.541 C 9.327 5.541 14.539 5.541 19.909 5.541 C 19.909 5.81 19.909 6.079 19.909 6.356 C 14.697 6.356 9.485 6.356 4.115 6.356 C 4.115 6.087 4.115 5.818 4.115 5.541 Z M 12.369 15.068 C 12.383 15.117 12.398 15.166 12.412 15.217 C 12.595 15.81 12.838 16.369 13.099 16.93 C 13.255 17.269 13.392 17.604 13.502 17.961 C 13.53 18.071 13.53 18.071 13.592 18.125 C 13.926 18.168 14.112 18.084 14.396 17.911 C 14.522 17.809 14.581 17.703 14.661 17.565 C 14.695 17.565 14.729 17.565 14.763 17.565 C 14.953 18.133 14.789 18.808 14.531 19.329 C 14.287 19.747 13.917 20.173 13.439 20.316 C 13.286 20.343 13.135 20.36 12.98 20.367 C 12.988 20.332 12.996 20.297 13.004 20.261 C 13.083 19.825 13.088 19.401 12.863 19.011 C 12.666 18.734 12.449 18.467 12.165 18.278 C 11.991 18.258 11.894 18.258 11.742 18.347 C 11.42 18.642 11.133 18.979 10.993 19.399 C 10.988 19.515 10.987 19.632 10.987 19.749 C 10.987 19.811 10.987 19.873 10.986 19.936 C 10.992 20.087 11.009 20.221 11.044 20.367 C 10.658 20.409 10.369 20.258 10.066 20.026 C 9.625 19.623 9.341 19 9.299 18.406 C 9.294 18.091 9.301 17.809 9.414 17.514 C 9.52 17.609 9.586 17.697 9.662 17.819 C 9.777 17.982 9.842 18.05 10.025 18.125 C 10.168 18.142 10.287 18.137 10.433 18.125 C 10.565 17.993 10.558 17.911 10.586 17.727 C 10.793 16.715 11.394 15.782 12.181 15.122 C 12.267 15.068 12.267 15.068 12.369 15.068 Z M 11.961 18.838 C 12.155 18.914 12.237 19.021 12.353 19.192 C 12.383 19.236 12.414 19.281 12.446 19.327 C 12.58 19.544 12.608 19.759 12.573 20.01 C 12.466 20.185 12.363 20.305 12.165 20.367 C 11.996 20.389 11.869 20.403 11.719 20.313 C 11.608 20.222 11.517 20.14 11.452 20.01 C 11.419 19.633 11.505 19.388 11.737 19.09 C 11.81 19.004 11.884 18.92 11.961 18.838 Z"/>
</svg>