<svg xmlns="http://www.w3.org/2000/svg" xmlns:xlink="http://www.w3.org/1999/xlink" viewBox="0 0 24 24" fill="rgb(102, 156, 210)">
    <path stroke-width="10" d="M 10.272 0.044 C 10.33 0.043000000000000003 10.33 0.043000000000000003 10.388 0.043000000000000003 C 10.515 0.042 10.642 0.042 10.769 0.043000000000000003 C 10.858 0.043000000000000003 10.946 0.043000000000000003 11.034 0.042 C 11.219 0.042 11.404 0.042 11.589 0.043000000000000003 C 11.826 0.045 12.063 0.044 12.301 0.043000000000000003 C 12.483 0.042 12.665 0.042 12.848 0.043000000000000003 C 12.935 0.043000000000000003 13.022 0.043000000000000003 13.11 0.042 C 13.232 0.042 13.354 0.042 13.476 0.044 C 13.513 0.043000000000000003 13.549 0.043000000000000003 13.586 0.042 C 13.745 0.045 13.849 0.063 13.986 0.14500000000000002 C 14.104 0.33699999999999997 14.092 0.506 14.088 0.727 C 14.088 0.773 14.088 0.8190000000000001 14.088 0.8660000000000001 C 14.088 1.017 14.086 1.168 14.085 1.319 C 14.084 1.424 14.084 1.529 14.084 1.633 C 14.083 1.909 14.081 2.185 14.079 2.461 C 14.077 2.742 14.076 3.023 14.075 3.305 C 14.073 3.857 14.069 4.409 14.065 4.961 C 14.112 4.961 14.112 4.961 14.159 4.961 C 14.916 4.957 15.672 4.955 16.428 4.953 C 16.794 4.952 17.16 4.9510000000000005 17.526 4.949 C 17.845 4.948 18.163 4.947 18.482 4.947 C 18.651 4.946 18.82 4.946 18.989 4.945 C 19.177 4.944 19.365 4.944 19.554 4.944 C 19.61 4.943 19.666 4.942 19.724 4.942 C 19.801 4.942 19.801 4.942 19.879 4.943 C 19.924 4.942 19.968 4.942 20.014 4.942 C 20.153 4.965 20.198 5.001 20.28 5.114 C 20.3 5.2780000000000005 20.3 5.2780000000000005 20.301 5.48 C 20.301 5.516 20.301 5.551 20.301 5.588 C 20.301 5.663 20.301 5.7379999999999995 20.3 5.813 C 20.299 5.929 20.3 6.043 20.301 6.159 C 20.301 6.232 20.301 6.305 20.301 6.378 C 20.3 6.444 20.3 6.511 20.3 6.579 C 20.28 6.744 20.28 6.744 20.216 6.83 C 20.106 6.913 20.049 6.915 19.912 6.912 C 19.871 6.911 19.83 6.911 19.788 6.91 C 19.746 6.909 19.703 6.908 19.659 6.906 C 19.616 6.906 19.573 6.905 19.529 6.904 C 19.423000000000002 6.9030000000000005 19.317 6.9 19.211 6.897 C 19.211 6.933 19.211 6.968 19.211 7.005 C 19.215 9.12 19.219 11.236 19.221 13.350999999999999 C 19.221 13.605 19.221 13.858 19.222 14.112 C 19.222 14.163 19.222 14.213 19.222 14.265 C 19.223 15.084 19.224 15.903 19.226 16.722 C 19.228 17.562 19.229 18.402 19.23 19.242 C 19.23 19.76 19.231 20.279 19.233 20.797 C 19.234 21.152 19.234 21.508 19.234 21.863 C 19.234 22.068 19.234 22.273 19.235 22.478 C 19.236 22.666 19.236 22.854 19.235 23.041 C 19.235 23.142 19.236 23.242 19.237 23.342 C 19.236 23.402 19.236 23.461 19.236 23.522 C 19.236 23.573 19.236 23.625 19.236 23.678 C 19.204 23.848 19.141 23.909 19.007 24.015 C 18.894 24.041 18.894 24.041 18.771 24.041 C 18.701 24.041 18.701 24.041 18.63 24.042 C 18.58 24.042 18.531 24.041 18.48 24.04 C 18.428 24.04 18.377 24.041 18.324 24.041 C 18.215 24.041 18.107 24.04 17.998 24.039 C 17.832 24.037 17.666 24.038 17.5 24.038 C 17.394 24.038 17.289 24.038 17.184 24.037 C 17.109 24.037 17.109 24.037 17.033 24.038 C 16.986 24.037 16.94 24.036 16.892 24.036 C 16.852 24.035 16.811 24.035 16.769 24.035 C 16.637 24.01 16.592 23.967 16.51 23.862000000000002 C 16.477 23.748 16.477 23.748 16.456 23.615 C 16.448 23.566 16.44 23.518 16.432 23.468 C 16.424 23.417 16.416 23.367 16.408 23.315 C 16.349 22.771 16.349 22.771 16.082 22.315 C 15.745 22.073 15.396 22.094 14.995 22.097 C 14.92 22.097 14.844 22.096 14.768 22.096 C 14.564 22.095 14.359 22.095 14.154 22.096 C 13.94 22.096 13.725 22.096 13.51 22.096 C 13.15 22.095 12.79 22.096 12.429 22.097 C 12.013 22.098 11.597 22.098 11.181 22.096 C 10.823 22.095 10.465 22.095 10.107 22.096 C 9.894 22.096 9.68 22.096 9.467 22.095 C 9.266 22.095 9.066 22.095 8.865 22.097 C 8.791 22.097 8.718 22.097 8.644 22.096 C 8.236 22.093 7.906 22.097 7.595 22.385 C 7.458 22.559 7.418 22.709 7.388 22.927 C 7.38 22.98 7.372 23.034 7.3629999999999995 23.089 C 7.348 23.202 7.332 23.314 7.316 23.427 C 7.308 23.48 7.3 23.534 7.292 23.589 C 7.285 23.638 7.279 23.686 7.272 23.737 C 7.233 23.88 7.201 23.924 7.085 24.015 C 6.977 24.035 6.977 24.035 6.85 24.036 C 6.779 24.037 6.779 24.037 6.707 24.038 C 6.63 24.037 6.63 24.037 6.552 24.037 C 6.499 24.037 6.447 24.038 6.393 24.038 C 6.281 24.038 6.17 24.038 6.059 24.038 C 5.889 24.037 5.718 24.039 5.548 24.04 C 5.44 24.041 5.332 24.041 5.224 24.04 C 5.173 24.041 5.122 24.042 5.069 24.042 C 5.022 24.042 4.974 24.041 4.925 24.041 C 4.884 24.041 4.8420000000000005 24.041 4.7989999999999995 24.041 C 4.691 24.015 4.691 24.015 4.609 23.93 C 4.521 23.783 4.519 23.693 4.519 23.522 C 4.519 23.463 4.518 23.403 4.518 23.342 C 4.519 23.244 4.519 23.244 4.519 23.145 C 4.519 23.075 4.519 23.005 4.519 22.935 C 4.519 22.742 4.519 22.55 4.52 22.358 C 4.521 22.15 4.521 21.943 4.52 21.735 C 4.52 21.376 4.521 21.017 4.522 20.657 C 4.523 20.138 4.523 19.618 4.523 19.098 C 4.524 18.255 4.525 17.412 4.526 16.569 C 4.5280000000000005 15.75 4.529 14.931000000000001 4.529 14.112 C 4.529 14.062 4.529 14.011 4.53 13.959 C 4.53 13.706 4.53 13.453 4.53 13.2 C 4.532 11.099 4.534 8.998 4.538 6.897 C 4.473 6.899 4.409 6.9 4.343 6.902 C 4.258 6.904 4.173 6.905 4.089 6.906 C 4.046 6.908 4.004 6.909 3.96 6.91 C 3.899 6.911 3.899 6.911 3.8360000000000003 6.912 C 3.78 6.913 3.78 6.913 3.722 6.914 C 3.591 6.892 3.547 6.85 3.468 6.744 C 3.448 6.579 3.448 6.579 3.448 6.378 C 3.447 6.342 3.447 6.307 3.447 6.27 C 3.447 6.195 3.447 6.12 3.448 6.044 C 3.449 5.929 3.448 5.814 3.447 5.699 C 3.447 5.626 3.447 5.553 3.448 5.48 C 3.448 5.413 3.448 5.3469999999999995 3.448 5.2780000000000005 C 3.468 5.114 3.468 5.114 3.5300000000000002 5.028 C 3.649 4.94 3.721 4.942 3.869 4.943 C 3.9210000000000003 4.942 3.972 4.942 4.025 4.942 C 4.081 4.942 4.1370000000000005 4.943 4.195 4.944 C 4.254 4.944 4.313 4.944 4.374 4.944 C 4.57 4.944 4.766 4.945 4.962 4.946 C 5.098 4.946 5.233 4.946 5.369 4.947 C 5.6899999999999995 4.947 6.011 4.948 6.332 4.95 C 6.697 4.952 7.063 4.952 7.428 4.953 C 8.18 4.955 8.932 4.958 9.683 4.961 C 9.683 4.9030000000000005 9.683 4.844 9.682 4.784 C 9.678 4.236 9.675 3.687 9.673 3.138 C 9.672 2.856 9.67 2.574 9.668 2.292 C 9.666 2.02 9.665 1.7469999999999999 9.664 1.475 C 9.664 1.371 9.663 1.267 9.661999999999999 1.163 C 9.66 1.018 9.66 0.8730000000000001 9.66 0.727 C 9.66 0.6839999999999999 9.659 0.641 9.658 0.597 C 9.659 0.41200000000000003 9.665 0.304 9.763 0.14500000000000002 C 9.931000000000001 0.043000000000000003 10.08 0.041 10.272 0.044 Z M 5.098 6.897 C 5.098 12.361 5.098 17.825 5.098 23.455 C 5.6530000000000005 23.455 6.208 23.455 6.779 23.455 C 6.813 23.186 6.847 22.917 6.881 22.64 C 7.044 22.179 7.252 21.89 7.697 21.672 C 7.873 21.614 8.039 21.614 8.224 21.613 C 8.324 21.613 8.324 21.613 8.425 21.613 C 8.499 21.613 8.573 21.612 8.647 21.612 C 8.724 21.612 8.802 21.612 8.88 21.612 C 9.091 21.611 9.301 21.611 9.512 21.61 C 9.644 21.61 9.776 21.61 9.908 21.61 C 10.321 21.609 10.734 21.609 11.147 21.608 C 11.623 21.608 12.099 21.607 12.575 21.606 C 12.943 21.605 13.311 21.604 13.68 21.604 C 13.9 21.604 14.119 21.604 14.339 21.603 C 14.546 21.602 14.753 21.602 14.96 21.602 C 15.036 21.602 15.111 21.602 15.187 21.602 C 15.714 21.598 16.134 21.618 16.534 21.992 C 16.832 22.324 16.864 22.72 16.918 23.149 C 16.935 23.25 16.952 23.351 16.969 23.455 C 17.524 23.455 18.078 23.455 18.65 23.455 C 18.65 17.991 18.65 12.527 18.65 6.897 C 14.178 6.897 9.706 6.897 5.098 6.897 Z M 10.244 0.63 C 11.32 0.63 12.396 0.63 13.504 0.63 C 13.504 2.06 13.504 3.489 13.504 4.961 C 12.428 4.961 11.352 4.961 10.244 4.961 C 10.244 3.532 10.244 2.103 10.244 0.63 Z M 3.977 5.521 C 9.189 5.521 14.401 5.521 19.771 5.521 C 19.771 5.79 19.771 6.059 19.771 6.337 C 14.559 6.337 9.347 6.337 3.977 6.337 C 3.977 6.068 3.977 5.7989999999999995 3.977 5.521 Z M 11.954 13.986 C 11.678 13.986 11.454 14.21 11.454 14.486 C 11.454 14.76 11.678 14.984 11.954 14.984 C 12.228 14.984 12.452 14.76 12.452 14.486 C 12.452 14.21 12.228 13.986 11.954 13.986 M 12.202 9.492 C 14.45 9.492 14.504 11.274000000000001 13.326 11.864 C 12.832 12.108 12.612 12.632 12.518 13.098 C 12.756 13.196 12.966 13.352 13.126 13.552 C 14.974 12.552 16.96 12.948 16.96 14.734 C 16.96 16.982 15.178 17.032 14.59 15.848 C 14.34 15.354 13.81 15.134 13.346 15.04 C 13.246 15.278 13.092 15.484 12.892 15.654 C 13.886 17.496 13.49 19.478 11.704 19.478 C 9.456 19.478 9.412 17.69 10.59 17.102 C 11.08 16.856 11.298 16.338 11.398 15.878 C 11.154 15.778 10.94 15.618 10.78 15.418 C 8.938 16.408 6.96 16.018 6.96 14.236 C 6.96 11.988 8.738 11.934 9.326 13.118 C 9.576 13.612 10.1 13.826 10.566 13.92 C 10.66 13.682 10.82 13.472 11.024 13.312 C 10.03 11.47 10.426 9.492 12.202 9.492 Z"/>
</svg>