<svg xmlns="http://www.w3.org/2000/svg" xmlns:xlink="http://www.w3.org/1999/xlink" viewBox="0 0 24 24" fill="rgb(102, 156, 210)"><path d="M 6.54 12.043 C 5.056 12.043 3.848 13.251 3.848 14.735 C 3.848 16.22 5.056 17.427 6.54 17.427 C 8.024 17.427 9.232 16.22 9.232 14.735 C 9.232 13.251 8.024 12.043 6.54 12.043 Z M 6.54 16.658 C 5.478 16.658 4.617 15.797 4.617 14.735 C 4.617 13.673 5.478 12.812 6.54 12.812 C 7.602 12.812 8.463 13.673 8.463 14.735 C 8.463 15.797 7.602 16.658 6.54 16.658 Z M 6.54 11.273 C 6.752 11.273 6.925 11.101 6.925 10.889 L 6.925 10.12 C 6.925 9.907 6.752 9.735 6.54 9.735 C 6.328 9.735 6.155 9.907 6.155 10.12 L 6.155 10.889 C 6.155 11.101 6.328 11.273 6.54 11.273 Z M 6.54 18.197 C 6.328 18.197 6.155 18.369 6.155 18.581 L 6.155 19.351 C 6.155 19.563 6.328 19.735 6.54 19.735 C 6.752 19.735 6.925 19.563 6.925 19.351 L 6.925 18.581 C 6.925 18.369 6.752 18.197 6.54 18.197 Z M 9.531 12.287 L 10.075 11.743 C 10.225 11.593 10.225 11.35 10.075 11.199 C 9.925 11.049 9.682 11.049 9.531 11.199 L 8.987 11.743 C 8.837 11.894 8.837 12.137 8.987 12.287 C 9.138 12.437 9.381 12.437 9.531 12.287 Z M 3.549 17.183 L 3.005 17.727 C 2.854 17.877 2.854 18.121 3.005 18.271 C 3.1550000000000002 18.421 3.398 18.421 3.549 18.271 L 4.092 17.727 C 4.243 17.576 4.243 17.333 4.092 17.183 C 3.942 17.033 3.699 17.032 3.549 17.183 Z M 3.078 14.735 C 3.078 14.523 2.906 14.350999999999999 2.694 14.350999999999999 L 1.925 14.350999999999999 C 1.712 14.350999999999999 1.54 14.523 1.54 14.735 C 1.54 14.947 1.712 15.12 1.925 15.12 L 2.694 15.12 C 2.906 15.12 3.078 14.947 3.078 14.735 Z M 11.155 14.350999999999999 L 10.386 14.350999999999999 C 10.174 14.350999999999999 10.002 14.523 10.002 14.735 C 10.002 14.947 10.174 15.12 10.386 15.12 L 11.155 15.12 C 11.368 15.12 11.54 14.947 11.54 14.735 C 11.54 14.523 11.368 14.350999999999999 11.155 14.350999999999999 Z M 3.548 12.287 C 3.698 12.437 3.942 12.437 4.092 12.287 C 4.242 12.137 4.242 11.894 4.092 11.743 L 3.548 11.199 C 3.398 11.049 3.154 11.049 3.004 11.199 C 2.854 11.35 2.854 11.593 3.004 11.743 L 3.548 12.287 Z M 9.532 17.183 C 9.381 17.032 9.138 17.032 8.988 17.183 C 8.838000000000001 17.333 8.837 17.576 8.988 17.726 L 9.532 18.27 C 9.682 18.421 9.925 18.421 10.076 18.27 C 10.226 18.12 10.226 17.877 10.076 17.726 L 9.532 17.183 Z M 19.779 10.228 L 21.779 10.228 L 21.779 12.228 L 19.779 12.228 L 19.779 10.228 Z M 16.533 10.228 L 18.533 10.228 L 18.533 12.228 L 16.533 12.228 L 16.533 10.228 Z M 13.287 10.228 L 15.287 10.228 L 15.287 12.228 L 13.287 12.228 L 13.287 10.228 Z M 19.779 14.066 L 21.779 14.066 L 21.779 16.066 L 19.779 16.066 L 19.779 14.066 Z M 16.533 14.066 L 18.533 14.066 L 18.533 16.066 L 16.533 16.066 L 16.533 14.066 Z M 13.287 14.066 L 15.287 14.066 L 15.287 16.066 L 13.287 16.066 L 13.287 14.066 Z M 19.779 17.904 L 21.779 17.904 L 21.779 19.904 L 19.779 19.904 L 19.779 17.904 Z M 16.533 17.904 L 18.533 17.904 L 18.533 19.904 L 16.533 19.904 L 16.533 17.904 Z M 13.287 17.904 L 15.287 17.904 L 15.287 19.904 L 13.287 19.904 L 13.287 17.904 Z M 20.728 3.846 L 22.91 3.846 L 22.91 7.09 L 1.09 7.09 L 1.09 3.846 L 3.2720000000000002 3.846 L 3.2720000000000002 2.7560000000000002 L 0 2.7560000000000002 L 0 22.364 L 24 22.364 L 24 2.7560000000000002 L 20.728 2.7560000000000002 L 20.728 3.846 Z M 22.91 21.272 L 1.09 21.272 L 1.09 8.21 L 22.91 8.21 L 22.91 21.272 Z M 6.546 3.846 L 6.546 2.7560000000000002 L 17.454 2.7560000000000002 L 17.454 3.846 L 6.546 3.846 Z M 4.364 1.6360000000000001 L 5.454 1.6360000000000001 L 5.454 4.908 L 4.364 4.908 L 4.364 1.6360000000000001 Z M 18.546 1.6360000000000001 L 19.636 1.6360000000000001 L 19.636 4.908 L 18.546 4.908 L 18.546 1.6360000000000001 Z"></path></svg>