<svg xmlns="http://www.w3.org/2000/svg" xmlns:xlink="http://www.w3.org/1999/xlink" viewBox="0 0 24 24" fill="rgb(102, 156, 210)"><path d="M 10.993 15.185 C 11.083 15.341 11.029 15.539 10.874 15.628 L 9.803 16.245 L 10.355 16.563 C 10.571 16.688 10.571 17.001 10.355 17.125 C 10.254 17.183 10.131 17.183 10.031 17.125 L 9.473 16.804 L 9.471 18.049 C 9.471 18.228 9.325 18.373 9.147 18.373 C 8.968 18.373 8.822 18.228 8.823 18.048 L 8.826 16.428 L 6.865 15.297 L 6.865 17.563 L 8.263 18.37 C 8.479 18.496 8.479 18.808 8.263 18.933 C 8.164 18.99 8.039 18.99 7.939 18.933 L 6.865 18.312 L 6.865 18.953 C 6.865 19.202 6.594 19.358 6.378 19.233 C 6.2780000000000005 19.175 6.216 19.068 6.216 18.953 L 6.216 18.312 L 5.141 18.932 C 4.925 19.057 4.655 18.9 4.655 18.651 C 4.655 18.535 4.717 18.428 4.817 18.37 L 6.216 17.562 L 6.216 15.296 L 4.256 16.428 L 4.258 18.047 C 4.258 18.226 4.114 18.372 3.935 18.372 L 3.934 18.372 C 3.755 18.372 3.61 18.228 3.61 18.049 L 3.608 16.803 L 3.05 17.125 C 2.834 17.25 2.563 17.093 2.563 16.843 C 2.564 16.728 2.625 16.621 2.726 16.562 L 3.278 16.244 L 2.207 15.627 C 1.9889999999999999 15.506 1.984 15.194 2.198 15.066 C 2.3 15.004 2.428 15.004 2.531 15.066 L 3.926 15.869 L 5.892 14.734 L 3.926 13.600999999999999 L 2.531 14.405 C 2.314 14.529 2.044 14.373 2.045 14.123 C 2.045 14.007 2.107 13.9 2.207 13.843 L 3.278 13.226 L 2.726 12.907 C 2.51 12.782 2.51 12.471 2.725 12.346 C 2.826 12.287 2.949 12.287 3.05 12.346 L 3.608 12.667 L 3.61 11.421 C 3.61 11.242 3.755 11.097 3.934 11.097 C 4.113 11.097 4.258 11.242 4.258 11.422 L 4.256 13.042 L 6.216 14.174 L 6.216 11.908 L 4.817 11.099 C 4.601 10.975 4.601 10.663 4.817 10.538 C 4.917 10.48 5.041 10.48 5.141 10.538 L 6.216 11.158 L 6.216 10.518 C 6.216 10.269 6.486 10.112 6.703 10.238 C 6.803 10.295 6.865 10.402 6.865 10.518 L 6.865 11.158 L 7.939 10.538 C 8.155 10.414 8.425 10.569 8.425 10.819 C 8.425 10.935 8.364 11.042 8.263 11.099 L 6.865 11.908 L 6.865 14.174 L 8.826 13.042 L 8.823 11.422 C 8.823 11.243 8.968 11.098 9.146 11.098 L 9.147 11.098 C 9.325 11.098 9.471 11.242 9.471 11.421 L 9.473 12.667 L 10.031 12.346 C 10.247 12.221 10.517 12.377 10.517 12.627 C 10.517 12.742 10.455 12.849 10.355 12.907 L 9.803 13.226 L 10.874 13.843 C 11.092 13.964 11.097 14.275 10.882 14.404 C 10.781 14.464 10.653 14.464 10.55 14.404 L 9.154 13.600999999999999 L 7.19 14.735 L 9.154 15.870000000000001 L 10.551 15.066 C 10.706 14.977 10.905 15.031 10.994 15.185 L 10.993 15.185 Z M 19.779 10.228 L 21.779 10.228 L 21.779 12.228 L 19.779 12.228 L 19.779 10.228 Z M 16.533 10.228 L 18.533 10.228 L 18.533 12.228 L 16.533 12.228 L 16.533 10.228 Z M 13.287 10.228 L 15.287 10.228 L 15.287 12.228 L 13.287 12.228 L 13.287 10.228 Z M 19.779 14.066 L 21.779 14.066 L 21.779 16.066 L 19.779 16.066 L 19.779 14.066 Z M 16.533 14.066 L 18.533 14.066 L 18.533 16.066 L 16.533 16.066 L 16.533 14.066 Z M 13.287 14.066 L 15.287 14.066 L 15.287 16.066 L 13.287 16.066 L 13.287 14.066 Z M 19.779 17.904 L 21.779 17.904 L 21.779 19.904 L 19.779 19.904 L 19.779 17.904 Z M 16.533 17.904 L 18.533 17.904 L 18.533 19.904 L 16.533 19.904 L 16.533 17.904 Z M 13.287 17.904 L 15.287 17.904 L 15.287 19.904 L 13.287 19.904 L 13.287 17.904 Z M 20.728 3.846 L 22.91 3.846 L 22.91 7.09 L 1.09 7.09 L 1.09 3.846 L 3.2720000000000002 3.846 L 3.2720000000000002 2.7560000000000002 L 0 2.7560000000000002 L 0 22.364 L 24 22.364 L 24 2.7560000000000002 L 20.728 2.7560000000000002 L 20.728 3.846 Z M 22.91 21.272 L 1.09 21.272 L 1.09 8.21 L 22.91 8.21 L 22.91 21.272 Z M 6.546 3.846 L 6.546 2.7560000000000002 L 17.454 2.7560000000000002 L 17.454 3.846 L 6.546 3.846 Z M 4.364 1.6360000000000001 L 5.454 1.6360000000000001 L 5.454 4.908 L 4.364 4.908 L 4.364 1.6360000000000001 Z M 18.546 1.6360000000000001 L 19.636 1.6360000000000001 L 19.636 4.908 L 18.546 4.908 L 18.546 1.6360000000000001 Z"></path></svg>